# Blender 3.6.5
# www.blender.org
mtllib StreetWalk.mtl
o Plane.022
v -8.763901 0.026061 5.005620
v 8.721762 0.026061 4.992538
v -8.771341 0.026061 -4.938300
v 8.714321 0.026061 -4.951381
v 8.653236 0.027512 -1.588984
v 8.670387 0.027512 -0.486363
v 9.884787 0.027512 -1.593287
v 9.901937 0.027512 -0.490665
v 9.884787 0.027512 -1.593287
v 8.653236 0.027512 -1.588984
v 8.670387 0.027512 -0.486363
v 9.901937 0.027512 -0.490665
v 9.884787 0.109557 -1.593287
v 8.653236 0.109557 -1.588984
v 8.670387 0.109557 -0.486363
v 9.901937 0.109557 -0.490665
v 8.652153 0.027512 -0.491164
v 8.669304 0.027512 0.611458
v 9.883701 0.027512 -0.495466
v 9.900852 0.027512 0.607155
v 9.883701 0.027512 -0.495466
v 8.652153 0.027512 -0.491164
v 8.669304 0.027512 0.611458
v 9.900852 0.027512 0.607155
v 9.883701 0.109557 -0.495466
v 8.652153 0.109557 -0.491164
v 8.669304 0.109557 0.611458
v 9.900852 0.109557 0.607155
v 8.649975 0.027512 1.708008
v 8.667126 0.027512 2.810630
v 9.881523 0.027512 1.703705
v 9.898676 0.027512 2.806327
v 9.881523 0.027512 1.703705
v 8.650240 0.027512 1.439182
v 8.667126 0.027512 2.810630
v 9.898676 0.027512 2.806327
v 9.881523 0.109557 1.703705
v 8.649975 0.109557 1.708008
v 8.667126 0.109557 2.810630
v 9.898676 0.109557 2.806327
v 8.651062 0.027512 0.610187
v 8.668215 0.027512 1.712809
v 9.882612 0.027512 0.605885
v 9.899763 0.027512 1.708506
v 9.882612 0.027512 0.605885
v 8.651062 0.027512 0.610187
v 8.668215 0.027512 1.712809
v 9.899763 0.027512 1.708506
v 9.882612 0.109557 0.605885
v 8.651062 0.109557 0.610187
v 8.668215 0.109557 1.712809
v 9.899763 0.109557 1.708506
v 8.647781 0.027512 3.926600
v 8.664932 0.027512 5.029222
v 9.879332 0.027512 3.922297
v 9.896484 0.027512 5.024919
v 9.879332 0.027512 3.922297
v 8.647781 0.027512 3.926600
v 8.664932 0.027512 5.029222
v 9.896484 0.027512 5.024919
v 9.879332 0.109557 3.922297
v 8.647781 0.109557 3.926600
v 8.664932 0.109557 5.029222
v 9.896484 0.109557 5.024919
v 8.648867 0.027512 2.828779
v 8.666018 0.027512 3.931400
v 9.880417 0.027512 2.824476
v 9.897568 0.027512 3.927097
v 9.880417 0.027512 2.824476
v 8.648867 0.027512 2.828779
v 8.666018 0.027512 3.931400
v 9.897568 0.027512 3.927097
v 9.880417 0.109557 2.824476
v 8.648867 0.109557 2.828779
v 8.666018 0.109557 3.931400
v 9.897568 0.109557 3.927097
v 8.656525 0.027512 -4.915425
v 8.673677 0.027512 -3.812804
v 9.888075 0.027512 -4.919728
v 9.905228 0.027512 -3.817106
v 9.888075 0.027512 -4.919728
v 8.656525 0.027512 -4.915425
v 8.673677 0.027512 -3.812804
v 9.905228 0.027512 -3.817106
v 9.888075 0.109557 -4.919728
v 8.656525 0.109557 -4.915425
v 8.673677 0.109557 -3.812804
v 9.905228 0.109557 -3.817106
v 8.654352 0.027512 -2.716249
v 8.671503 0.027512 -1.613627
v 9.885902 0.027512 -2.720551
v 9.903053 0.027512 -1.617930
v 9.885902 0.027512 -2.720551
v 8.654352 0.027512 -2.716249
v 8.671503 0.027512 -1.613627
v 9.903053 0.027512 -1.617930
v 9.885902 0.109557 -2.720551
v 8.654352 0.109557 -2.716249
v 8.671503 0.109557 -1.613627
v 9.903053 0.109557 -1.617930
v 8.655436 0.027512 -3.814078
v 8.672586 0.027512 -2.711457
v 9.886986 0.027512 -3.818381
v 9.904137 0.027512 -2.715759
v 9.886986 0.027512 -3.818381
v 8.655436 0.027512 -3.814078
v 8.672586 0.027512 -2.711457
v 9.904137 0.027512 -2.715759
v 9.886986 0.109557 -3.818381
v 8.655436 0.109557 -3.814078
v 8.672586 0.109557 -2.711457
v 9.904137 0.109557 -2.715759
v -9.974775 0.027512 -3.806142
v -9.957624 0.027512 -2.703520
v -8.743225 0.027512 -3.810444
v -8.726074 0.027512 -2.707823
v -8.743225 0.027512 -3.810444
v -9.974775 0.027512 -3.806142
v -9.957624 0.027512 -2.703520
v -8.726074 0.027512 -2.707823
v -8.743225 0.109557 -3.810444
v -9.974775 0.109557 -3.806142
v -9.957624 0.109557 -2.703520
v -8.726074 0.109557 -2.707823
v -9.975859 0.027512 -2.708315
v -9.958708 0.027512 -1.605694
v -8.744308 0.027512 -2.712618
v -8.727158 0.027512 -1.609996
v -8.744308 0.027512 -2.712618
v -9.975859 0.027512 -2.708315
v -9.958708 0.027512 -1.605694
v -8.727158 0.027512 -1.609996
v -8.744308 0.109557 -2.712618
v -9.975859 0.109557 -2.708315
v -9.958708 0.109557 -1.605694
v -8.727158 0.109557 -1.609996
v -9.973684 0.027512 -4.907489
v -9.956533 0.027512 -3.804868
v -8.742136 0.027512 -4.911791
v -8.724985 0.027512 -3.809170
v -8.742136 0.027512 -4.911791
v -9.973684 0.027512 -4.907489
v -9.956533 0.027512 -3.804868
v -8.724985 0.027512 -3.809170
v -8.742136 0.109557 -4.911791
v -9.973684 0.109557 -4.907489
v -9.956533 0.109557 -3.804868
v -8.724985 0.109557 -3.809170
v -9.981344 0.027512 2.836713
v -9.964193 0.027512 3.939335
v -8.749796 0.027512 2.832411
v -8.732643 0.027512 3.935032
v -8.749796 0.027512 2.832411
v -9.981344 0.027512 2.836713
v -9.964193 0.027512 3.939335
v -8.732643 0.027512 3.935032
v -8.749796 0.109557 2.832411
v -9.981344 0.109557 2.836713
v -9.964193 0.109557 3.939335
v -8.732643 0.109557 3.935032
v -9.982430 0.027512 3.934533
v -9.965277 0.027512 5.037154
v -8.750879 0.027512 3.930230
v -8.733728 0.027512 5.032852
v -8.750879 0.027512 3.930230
v -9.982430 0.027512 3.934533
v -9.965277 0.027512 5.037154
v -8.733728 0.027512 5.032852
v -8.750879 0.109557 3.930230
v -9.982430 0.109557 3.934533
v -9.965277 0.109557 5.037154
v -8.733728 0.109557 5.032852
v -9.979149 0.027512 0.618121
v -9.961998 0.027512 1.720743
v -8.747599 0.027512 0.613818
v -8.730448 0.027512 1.716440
v -8.747599 0.027512 0.613818
v -9.979149 0.027512 0.618121
v -9.961998 0.027512 1.720743
v -8.730448 0.027512 1.716440
v -8.747599 0.109557 0.613818
v -9.979149 0.109557 0.618121
v -9.961998 0.109557 1.720743
v -8.730448 0.109557 1.716440
v -9.980238 0.027512 1.715941
v -9.963085 0.027512 2.818563
v -8.748686 0.027512 1.711638
v -8.731535 0.027512 2.814260
v -8.748686 0.027512 1.711638
v -9.980238 0.027512 1.715941
v -9.963085 0.027512 2.818563
v -8.731535 0.027512 2.814260
v -8.748686 0.109557 1.711638
v -9.980238 0.109557 1.715941
v -9.963085 0.109557 2.818563
v -8.731535 0.109557 2.814260
v -9.978060 0.027512 -0.483230
v -9.960907 0.027512 0.619391
v -8.746510 0.027512 -0.487533
v -8.729359 0.027512 0.615089
v -8.746510 0.027512 -0.487533
v -9.978060 0.027512 -0.483230
v -9.960907 0.027512 0.619391
v -8.729359 0.027512 0.615089
v -8.746510 0.109557 -0.487533
v -9.978060 0.109557 -0.483230
v -9.960907 0.109557 0.619391
v -8.729359 0.109557 0.615089
v -9.976974 0.027512 -1.581050
v -9.959824 0.027512 -0.478429
v -8.745426 0.027512 -1.585353
v -8.728273 0.027512 -0.482732
v -8.745426 0.027512 -1.585353
v -9.976974 0.027512 -1.581050
v -9.959824 0.027512 -0.478429
v -8.728273 0.027512 -0.482732
v -8.745426 0.109557 -1.585353
v -9.976974 0.109557 -1.581050
v -9.959824 0.109557 -0.478429
v -8.728273 0.109557 -0.482732
v 1.572573 0.044168 -4.154758
v 1.645510 0.044168 -1.328713
v 2.804102 0.044168 -4.161402
v 2.877038 0.044168 -1.335357
v 6.280673 0.044168 -4.180156
v 6.353610 0.044168 -1.354111
v 7.512201 0.044168 -4.186799
v 7.585138 0.044168 -1.360755
v 3.888534 0.044168 -4.167251
v 3.961471 0.044168 -1.341206
v 5.120062 0.044168 -4.173894
v 5.192999 0.044168 -1.347850
v -7.802092 0.044168 -4.104184
v -7.729155 0.044168 -1.278140
v -6.570563 0.044168 -4.110827
v -6.497626 0.044168 -1.284783
v -3.107912 0.044168 -4.129508
v -3.034975 0.044168 -1.303463
v -1.876383 0.044168 -4.136151
v -1.803446 0.044168 -1.310107
v -5.500051 0.044168 -4.116607
v -5.427114 0.044168 -1.290563
v -4.268523 0.044168 -4.123250
v -4.195586 0.044168 -1.297206
vn -0.0000 1.0000 -0.0000
vn -0.0000 -1.0000 -0.0000
vn 0.0035 -0.0000 1.0000
vn -0.0035 -0.0000 -1.0000
vn 0.9999 -0.0000 -0.0156
vn -0.9999 -0.0000 0.0156
vn 0.0550 0.8523 -0.5202
vn -0.9996 -0.0241 0.0138
s 0
usemtl Material.327
f 3//1 1//1 2//1 4//1
usemtl Material.234
f 5//2 7//2 8//2 6//2
f 11//3 12//3 16//3 15//3
f 6//1 8//1 12//1 11//1
f 7//1 5//1 10//1 9//1
f 8//1 7//1 9//1 12//1
f 5//1 6//1 11//1 10//1
f 14//1 15//1 16//1 13//1
f 9//4 10//4 14//4 13//4
f 12//5 9//5 13//5 16//5
f 10//6 11//6 15//6 14//6
usemtl Material.235
f 17//2 19//2 20//2 18//2
f 23//3 24//3 28//3 27//3
f 18//1 20//1 24//1 23//1
f 19//1 17//1 22//1 21//1
f 20//1 19//1 21//1 24//1
f 17//1 18//1 23//1 22//1
f 26//1 27//1 28//1 25//1
f 21//4 22//4 26//4 25//4
f 24//5 21//5 25//5 28//5
f 22//6 23//6 27//6 26//6
usemtl Material.236
f 29//2 31//2 32//2 30//2
f 35//3 36//3 40//3 39//3
f 30//1 32//1 36//1 35//1
f 31//2 29//2 34//2 33//2
f 32//1 31//1 33//1 36//1
f 29//1 30//1 35//1 34//1
f 38//1 39//1 40//1 37//1
f 33//7 34//7 38//7 37//7
f 36//5 33//5 37//5 40//5
f 34//8 35//8 39//8 38//8
usemtl Material.237
f 41//2 43//2 44//2 42//2
f 47//3 48//3 52//3 51//3
f 42//1 44//1 48//1 47//1
f 43//1 41//1 46//1 45//1
f 44//1 43//1 45//1 48//1
f 41//1 42//1 47//1 46//1
f 50//1 51//1 52//1 49//1
f 45//4 46//4 50//4 49//4
f 48//5 45//5 49//5 52//5
f 46//6 47//6 51//6 50//6
usemtl Material.238
f 53//2 55//2 56//2 54//2
f 59//3 60//3 64//3 63//3
f 54//1 56//1 60//1 59//1
f 55//1 53//1 58//1 57//1
f 56//1 55//1 57//1 60//1
f 53//1 54//1 59//1 58//1
f 62//1 63//1 64//1 61//1
f 57//4 58//4 62//4 61//4
f 60//5 57//5 61//5 64//5
f 58//6 59//6 63//6 62//6
usemtl Material.239
f 65//2 67//2 68//2 66//2
f 71//3 72//3 76//3 75//3
f 66//1 68//1 72//1 71//1
f 67//1 65//1 70//1 69//1
f 68//1 67//1 69//1 72//1
f 65//1 66//1 71//1 70//1
f 74//1 75//1 76//1 73//1
f 69//4 70//4 74//4 73//4
f 72//5 69//5 73//5 76//5
f 70//6 71//6 75//6 74//6
usemtl Material.241
f 77//2 79//2 80//2 78//2
f 83//3 84//3 88//3 87//3
f 78//1 80//1 84//1 83//1
f 79//1 77//1 82//1 81//1
f 80//1 79//1 81//1 84//1
f 77//1 78//1 83//1 82//1
f 86//1 87//1 88//1 85//1
f 81//4 82//4 86//4 85//4
f 84//5 81//5 85//5 88//5
f 82//6 83//6 87//6 86//6
usemtl Material.242
f 89//2 91//2 92//2 90//2
f 95//3 96//3 100//3 99//3
f 90//1 92//1 96//1 95//1
f 91//1 89//1 94//1 93//1
f 92//1 91//1 93//1 96//1
f 89//1 90//1 95//1 94//1
f 98//1 99//1 100//1 97//1
f 93//4 94//4 98//4 97//4
f 96//5 93//5 97//5 100//5
f 94//6 95//6 99//6 98//6
usemtl Material.243
f 101//2 103//2 104//2 102//2
f 107//3 108//3 112//3 111//3
f 102//1 104//1 108//1 107//1
f 103//1 101//1 106//1 105//1
f 104//1 103//1 105//1 108//1
f 101//1 102//1 107//1 106//1
f 110//1 111//1 112//1 109//1
f 105//4 106//4 110//4 109//4
f 108//5 105//5 109//5 112//5
f 106//6 107//6 111//6 110//6
usemtl Material.252
f 113//2 115//2 116//2 114//2
f 119//3 120//3 124//3 123//3
f 114//1 116//1 120//1 119//1
f 115//1 113//1 118//1 117//1
f 116//1 115//1 117//1 120//1
f 113//1 114//1 119//1 118//1
f 122//1 123//1 124//1 121//1
f 117//4 118//4 122//4 121//4
f 120//5 117//5 121//5 124//5
f 118//6 119//6 123//6 122//6
usemtl Material.253
f 125//2 127//2 128//2 126//2
f 131//3 132//3 136//3 135//3
f 126//1 128//1 132//1 131//1
f 127//1 125//1 130//1 129//1
f 128//1 127//1 129//1 132//1
f 125//1 126//1 131//1 130//1
f 134//1 135//1 136//1 133//1
f 129//4 130//4 134//4 133//4
f 132//5 129//5 133//5 136//5
f 130//6 131//6 135//6 134//6
usemtl Material.254
f 137//2 139//2 140//2 138//2
f 143//3 144//3 148//3 147//3
f 138//1 140//1 144//1 143//1
f 139//1 137//1 142//1 141//1
f 140//1 139//1 141//1 144//1
f 137//1 138//1 143//1 142//1
f 146//1 147//1 148//1 145//1
f 141//4 142//4 146//4 145//4
f 144//5 141//5 145//5 148//5
f 142//6 143//6 147//6 146//6
usemtl Material.256
f 149//2 151//2 152//2 150//2
f 155//3 156//3 160//3 159//3
f 150//1 152//1 156//1 155//1
f 151//1 149//1 154//1 153//1
f 152//1 151//1 153//1 156//1
f 149//1 150//1 155//1 154//1
f 158//1 159//1 160//1 157//1
f 153//4 154//4 158//4 157//4
f 156//5 153//5 157//5 160//5
f 154//6 155//6 159//6 158//6
usemtl Material.257
f 161//2 163//2 164//2 162//2
f 167//3 168//3 172//3 171//3
f 162//1 164//1 168//1 167//1
f 163//1 161//1 166//1 165//1
f 164//1 163//1 165//1 168//1
f 161//1 162//1 167//1 166//1
f 170//1 171//1 172//1 169//1
f 165//4 166//4 170//4 169//4
f 168//5 165//5 169//5 172//5
f 166//6 167//6 171//6 170//6
usemtl Material.258
f 173//2 175//2 176//2 174//2
f 179//3 180//3 184//3 183//3
f 174//1 176//1 180//1 179//1
f 175//1 173//1 178//1 177//1
f 176//1 175//1 177//1 180//1
f 173//1 174//1 179//1 178//1
f 182//1 183//1 184//1 181//1
f 177//4 178//4 182//4 181//4
f 180//5 177//5 181//5 184//5
f 178//6 179//6 183//6 182//6
usemtl Material.259
f 185//2 187//2 188//2 186//2
f 191//3 192//3 196//3 195//3
f 186//1 188//1 192//1 191//1
f 187//1 185//1 190//1 189//1
f 188//1 187//1 189//1 192//1
f 185//1 186//1 191//1 190//1
f 194//1 195//1 196//1 193//1
f 189//4 190//4 194//4 193//4
f 192//5 189//5 193//5 196//5
f 190//6 191//6 195//6 194//6
usemtl Material.260
f 197//2 199//2 200//2 198//2
f 203//3 204//3 208//3 207//3
f 198//1 200//1 204//1 203//1
f 199//1 197//1 202//1 201//1
f 200//1 199//1 201//1 204//1
f 197//1 198//1 203//1 202//1
f 206//1 207//1 208//1 205//1
f 201//4 202//4 206//4 205//4
f 204//5 201//5 205//5 208//5
f 202//6 203//6 207//6 206//6
usemtl Material.261
f 209//2 211//2 212//2 210//2
f 215//3 216//3 220//3 219//3
f 210//1 212//1 216//1 215//1
f 211//1 209//1 214//1 213//1
f 212//1 211//1 213//1 216//1
f 209//1 210//1 215//1 214//1
f 218//1 219//1 220//1 217//1
f 213//4 214//4 218//4 217//4
f 216//5 213//5 217//5 220//5
f 214//6 215//6 219//6 218//6
usemtl Material.301
f 221//1 222//1 224//1 223//1
usemtl Material.302
f 225//1 226//1 228//1 227//1
usemtl Material.303
f 229//1 230//1 232//1 231//1
usemtl Material.304
f 233//1 234//1 236//1 235//1
usemtl Material.305
f 237//1 238//1 240//1 239//1
usemtl Material.306
f 241//1 242//1 244//1 243//1
o Plane.001
v -0.819566 0.044168 -4.141853
v -0.746630 0.044168 -1.315809
v 0.411962 0.044168 -4.148496
v 0.484899 0.044168 -1.322452
vn -0.0000 1.0000 -0.0000
s 0
usemtl Material.300
f 245//9 246//9 248//9 247//9
o Plane.002
v -0.819566 0.044168 0.356486
v -0.746630 0.044168 3.182530
v 0.411962 0.044168 0.349843
v 0.484899 0.044168 3.175888
vn -0.0000 1.0000 -0.0000
s 0
usemtl Material.300
f 249//10 250//10 252//10 251//10
